File Name

Shanghai Knights 2003 816p BRRip H264.mp4

File Size
Format : MPEG-4
Format profile : Base Media
Codec ID : isom
File size : 3.71 GiB
Duration : 1h 54mn
Overall bit rate : 4 639 Kbps

Video
ID : 1
Format : AVC
Format/Info : Advanced Video Codec
Format profile : High@L4.1
Format settings, CABAC : Yes
Format settings, ReFrames : 3 frames
Codec ID : avc1
Codec ID/Info : Advanced Video Coding
Duration : 1h 54mn
Bit rate mode : Variable
Bit rate : 3 999 Kbps
Maximum bit rate : 12.7 Mbps
Width : 1 920 pixels
Height : 816 pixels
Display aspect ratio : 2.35:1
Frame rate mode : Constant
Frame rate : 23.976 fps
Resolution : 24 bits
Colorimetry : 4:2:0
Scan type : Progressive
Bits/(Pixel*Frame) : 0.106
Stream size : 3.19 GiB (86%)

Audio #1
ID : 2
Format : AAC
Format/Info : Advanced Audio Codec
Format version : Version 4
Format profile : LC
Format settings, SBR : No
Codec ID : 40
Duration : 1h 54mn
Bit rate mode : Variable
Bit rate : 192 Kbps
Maximum bit rate : 201 Kbps
Channel(s) : 2 channels
Channel positions : L R
Sampling rate : 48.0 KHz
Resolution : 16 bits
Stream size : 156 MiB (4%)

Audio #2
ID : 3
Format : AAC
Format/Info : Advanced Audio Codec
Format version : Version 4
Format profile : LC
Format settings, SBR : No
Codec ID : 40
Duration : 1h 54mn
Bit rate mode : Variable
Bit rate : 448 Kbps
Maximum bit rate : 460 Kbps
Channel(s) : 6 channels
Channel positions : Front: L C R, Rear: L R, LFE
Sampling rate : 48.0 KHz
Resolution : 16 bits
Stream size : 366 MiB (10%)

English SRT : ----

Language : English



 
http://www.imdb.com/title/tt0300471/

Release Date: 7 February 2003 (USA) 

Genre: Action | Adventure | Comedy | Western 

Plot: When a Chinese rebel murders Chon's estranged father and escapes to England, Chon and Roy make their way to London with revenge on their minds.

Cast: 
Jackie Chan ... Chon Wang
Owen Wilson ... Roy O'Bannon
Fann Wong ... Chon Lin
Aaron Johnson ... Charlie Chaplin
Aidan Gillen ... Lord Nelson Rathbone
Tom Fisher ... Insp. Artie Doyle (as Thomas Fisher)
Donnie Yen ... Wu Chow
Oliver Cotton ... Jack the Ripper
Alison King ... Prostitute
Constantine Gregory ... The Mayor
Jonathan Harvey ... Fagin #1
Richard Haas ... Street Preacher
Anna-Louise Plowman ... Debutante (as Anna Louise Plowman)
Georgina Chapman ... Debutante
John Owens ... Server



Screenshots
 
http://www.imagebam.com/image/0152fa93088722
 
http://www.imagebam.com/image/8688a093088805
 
http://www.imagebam.com/image/93646593088870
 
http://www.imagebam.com/image/84096893088919
 
http://www.imagebam.com/image/b05be893088970
 
http://www.imagebam.com/image/453c2493089007
 
http://www.imagebam.com/image/df870d93089054
 
http://www.imagebam.com/image/db4d6993089084
 
http://www.imagebam.com/image/fbd27f93089145